<mxfile host="app.diagrams.net" modified="2023-10-29T22:44:35.418Z" agent="Mozilla/5.0 (Windows NT 10.0; Win64; x64; rv:109.0) Gecko/20100101 Firefox/119.0" etag="OZRW-3X13hhNJy5zSp37" version="22.0.8" type="github">
  <diagram name="Page-1" id="pPZrmTYdzbO_HQvP61DU">
    <mxGraphModel dx="3004" dy="1010" grid="1" gridSize="10" guides="1" tooltips="1" connect="1" arrows="1" fold="1" page="1" pageScale="1" pageWidth="850" pageHeight="1100" math="0" shadow="0">
      <root>
        <mxCell id="0" />
        <mxCell id="1" parent="0" />
        <mxCell id="yJawU_Pm0WpNlv6CMc29-3" value="&lt;div&gt;Data Polling&lt;/div&gt;" style="rounded=1;whiteSpace=wrap;html=1;" vertex="1" parent="1">
          <mxGeometry x="-640" y="235" width="120" height="60" as="geometry" />
        </mxCell>
        <mxCell id="yJawU_Pm0WpNlv6CMc29-5" value="Data Calculation" style="rounded=1;whiteSpace=wrap;html=1;" vertex="1" parent="1">
          <mxGeometry x="-440" y="100" width="120" height="60" as="geometry" />
        </mxCell>
        <mxCell id="yJawU_Pm0WpNlv6CMc29-7" value="Data Display" style="rounded=1;whiteSpace=wrap;html=1;" vertex="1" parent="1">
          <mxGeometry x="-240" y="235" width="120" height="60" as="geometry" />
        </mxCell>
        <mxCell id="yJawU_Pm0WpNlv6CMc29-13" value="" style="ellipse;whiteSpace=wrap;html=1;aspect=fixed;fillColor=#080808;" vertex="1" parent="1">
          <mxGeometry x="-800" y="250" width="30" height="30" as="geometry" />
        </mxCell>
        <mxCell id="yJawU_Pm0WpNlv6CMc29-14" value="" style="endArrow=none;dashed=1;html=1;rounded=0;entryX=0.5;entryY=1;entryDx=0;entryDy=0;" edge="1" parent="1">
          <mxGeometry width="50" height="50" relative="1" as="geometry">
            <mxPoint x="-785.5" y="320" as="sourcePoint" />
            <mxPoint x="-785.5" y="280" as="targetPoint" />
          </mxGeometry>
        </mxCell>
        <mxCell id="yJawU_Pm0WpNlv6CMc29-15" value="Initial Pseudostate" style="shape=note;whiteSpace=wrap;html=1;backgroundOutline=1;darkOpacity=0.05;" vertex="1" parent="1">
          <mxGeometry x="-845" y="320" width="120" height="80" as="geometry" />
        </mxCell>
        <mxCell id="yJawU_Pm0WpNlv6CMc29-16" value="" style="endArrow=classic;html=1;rounded=0;exitX=1;exitY=0.5;exitDx=0;exitDy=0;" edge="1" parent="1" source="yJawU_Pm0WpNlv6CMc29-13">
          <mxGeometry width="50" height="50" relative="1" as="geometry">
            <mxPoint x="-700" y="410" as="sourcePoint" />
            <mxPoint x="-640" y="265" as="targetPoint" />
          </mxGeometry>
        </mxCell>
        <mxCell id="yJawU_Pm0WpNlv6CMc29-17" value="" style="endArrow=classic;html=1;rounded=0;exitX=0.5;exitY=0;exitDx=0;exitDy=0;entryX=0;entryY=0.5;entryDx=0;entryDy=0;" edge="1" parent="1" source="yJawU_Pm0WpNlv6CMc29-3" target="yJawU_Pm0WpNlv6CMc29-5">
          <mxGeometry width="50" height="50" relative="1" as="geometry">
            <mxPoint x="-565" y="210" as="sourcePoint" />
            <mxPoint x="-515" y="160" as="targetPoint" />
            <Array as="points">
              <mxPoint x="-580" y="130" />
            </Array>
          </mxGeometry>
        </mxCell>
        <mxCell id="yJawU_Pm0WpNlv6CMc29-19" value="" style="endArrow=classic;html=1;rounded=0;exitX=1;exitY=0.5;exitDx=0;exitDy=0;entryX=0.5;entryY=0;entryDx=0;entryDy=0;" edge="1" parent="1" source="yJawU_Pm0WpNlv6CMc29-5" target="yJawU_Pm0WpNlv6CMc29-7">
          <mxGeometry width="50" height="50" relative="1" as="geometry">
            <mxPoint x="-410" y="350" as="sourcePoint" />
            <mxPoint x="-360" y="300" as="targetPoint" />
            <Array as="points">
              <mxPoint x="-180" y="130" />
            </Array>
          </mxGeometry>
        </mxCell>
        <mxCell id="yJawU_Pm0WpNlv6CMc29-22" value="&lt;div&gt;List of user&#39;s smart&lt;/div&gt;&lt;div&gt;home devices retrieved&lt;/div&gt;" style="text;html=1;align=center;verticalAlign=middle;resizable=0;points=[];autosize=1;strokeColor=none;fillColor=none;" vertex="1" parent="1">
          <mxGeometry x="-780" y="200" width="150" height="40" as="geometry" />
        </mxCell>
        <mxCell id="yJawU_Pm0WpNlv6CMc29-23" value="New Data Available" style="text;html=1;strokeColor=none;fillColor=none;align=center;verticalAlign=middle;whiteSpace=wrap;rounded=0;" vertex="1" parent="1">
          <mxGeometry x="-570" y="100" width="120" height="30" as="geometry" />
        </mxCell>
        <mxCell id="yJawU_Pm0WpNlv6CMc29-24" value="New User Interaction" style="text;html=1;strokeColor=none;fillColor=none;align=center;verticalAlign=middle;whiteSpace=wrap;rounded=0;" vertex="1" parent="1">
          <mxGeometry x="-310" y="100" width="130" height="30" as="geometry" />
        </mxCell>
        <mxCell id="yJawU_Pm0WpNlv6CMc29-25" value="" style="endArrow=classic;html=1;rounded=0;exitX=0.5;exitY=1;exitDx=0;exitDy=0;entryX=1;entryY=0.5;entryDx=0;entryDy=0;" edge="1" parent="1" source="yJawU_Pm0WpNlv6CMc29-5" target="yJawU_Pm0WpNlv6CMc29-3">
          <mxGeometry width="50" height="50" relative="1" as="geometry">
            <mxPoint x="-510" y="350" as="sourcePoint" />
            <mxPoint x="-460" y="300" as="targetPoint" />
            <Array as="points">
              <mxPoint x="-380" y="265" />
            </Array>
          </mxGeometry>
        </mxCell>
        <mxCell id="yJawU_Pm0WpNlv6CMc29-26" value="No New User Interaction" style="text;html=1;strokeColor=none;fillColor=none;align=center;verticalAlign=middle;whiteSpace=wrap;rounded=0;" vertex="1" parent="1">
          <mxGeometry x="-510" y="235" width="130" height="30" as="geometry" />
        </mxCell>
        <mxCell id="yJawU_Pm0WpNlv6CMc29-27" value="" style="endArrow=classic;html=1;rounded=0;exitX=0;exitY=0.75;exitDx=0;exitDy=0;entryX=1;entryY=0.75;entryDx=0;entryDy=0;" edge="1" parent="1" source="yJawU_Pm0WpNlv6CMc29-7" target="yJawU_Pm0WpNlv6CMc29-3">
          <mxGeometry width="50" height="50" relative="1" as="geometry">
            <mxPoint x="-410" y="350" as="sourcePoint" />
            <mxPoint x="-360" y="300" as="targetPoint" />
          </mxGeometry>
        </mxCell>
        <mxCell id="yJawU_Pm0WpNlv6CMc29-28" value="User Leaves Dashboard" style="text;html=1;strokeColor=none;fillColor=none;align=center;verticalAlign=middle;whiteSpace=wrap;rounded=0;" vertex="1" parent="1">
          <mxGeometry x="-525" y="280" width="290" height="30" as="geometry" />
        </mxCell>
        <mxCell id="yJawU_Pm0WpNlv6CMc29-29" value="Data Deletion" style="rounded=1;whiteSpace=wrap;html=1;" vertex="1" parent="1">
          <mxGeometry x="-240" y="380" width="120" height="60" as="geometry" />
        </mxCell>
        <mxCell id="yJawU_Pm0WpNlv6CMc29-33" value="" style="ellipse;whiteSpace=wrap;html=1;" vertex="1" parent="1">
          <mxGeometry x="-205" y="520" width="50" height="50" as="geometry" />
        </mxCell>
        <mxCell id="yJawU_Pm0WpNlv6CMc29-30" value="" style="ellipse;whiteSpace=wrap;html=1;aspect=fixed;fillColor=#080808;" vertex="1" parent="1">
          <mxGeometry x="-195" y="530" width="30" height="30" as="geometry" />
        </mxCell>
        <mxCell id="yJawU_Pm0WpNlv6CMc29-31" value="" style="endArrow=none;dashed=1;html=1;rounded=0;entryX=0.5;entryY=1;entryDx=0;entryDy=0;" edge="1" parent="1">
          <mxGeometry width="50" height="50" relative="1" as="geometry">
            <mxPoint x="-180.5" y="600" as="sourcePoint" />
            <mxPoint x="-180.5" y="560" as="targetPoint" />
          </mxGeometry>
        </mxCell>
        <mxCell id="yJawU_Pm0WpNlv6CMc29-32" value="Final State" style="shape=note;whiteSpace=wrap;html=1;backgroundOutline=1;darkOpacity=0.05;" vertex="1" parent="1">
          <mxGeometry x="-240" y="600" width="120" height="80" as="geometry" />
        </mxCell>
        <mxCell id="yJawU_Pm0WpNlv6CMc29-35" value="" style="endArrow=classic;html=1;rounded=0;exitX=0.5;exitY=1;exitDx=0;exitDy=0;entryX=0.5;entryY=0;entryDx=0;entryDy=0;" edge="1" parent="1" source="yJawU_Pm0WpNlv6CMc29-29" target="yJawU_Pm0WpNlv6CMc29-30">
          <mxGeometry width="50" height="50" relative="1" as="geometry">
            <mxPoint x="-250" y="550" as="sourcePoint" />
            <mxPoint x="-200" y="500" as="targetPoint" />
          </mxGeometry>
        </mxCell>
        <mxCell id="yJawU_Pm0WpNlv6CMc29-36" value="" style="endArrow=classic;html=1;rounded=0;exitX=0.5;exitY=1;exitDx=0;exitDy=0;entryX=0.5;entryY=0;entryDx=0;entryDy=0;" edge="1" parent="1" source="yJawU_Pm0WpNlv6CMc29-7" target="yJawU_Pm0WpNlv6CMc29-29">
          <mxGeometry width="50" height="50" relative="1" as="geometry">
            <mxPoint x="-250" y="550" as="sourcePoint" />
            <mxPoint x="-200" y="500" as="targetPoint" />
          </mxGeometry>
        </mxCell>
        <mxCell id="yJawU_Pm0WpNlv6CMc29-37" value="User Deletes Account" style="text;html=1;strokeColor=none;fillColor=none;align=center;verticalAlign=middle;whiteSpace=wrap;rounded=0;" vertex="1" parent="1">
          <mxGeometry x="-180" y="320" width="100" height="30" as="geometry" />
        </mxCell>
      </root>
    </mxGraphModel>
  </diagram>
</mxfile>
